<mxfile host="app.diagrams.net" modified="2023-12-17T15:26:42.278Z" agent="Mozilla/5.0 (Windows NT 10.0; Win64; x64) AppleWebKit/537.36 (KHTML, like Gecko) Chrome/120.0.0.0 Safari/537.36" etag="6p4K9ajUzOHKHsgWDFeY" version="22.1.11" type="github">
  <diagram name="Página-1" id="_bR8Y0PelfN_u2xStO4r">
    <mxGraphModel dx="2514" dy="868" grid="1" gridSize="10" guides="1" tooltips="1" connect="1" arrows="1" fold="1" page="1" pageScale="1" pageWidth="827" pageHeight="1169" math="0" shadow="0">
      <root>
        <mxCell id="0" />
        <mxCell id="1" parent="0" />
        <mxCell id="4WxtduSmjNVkcB8dckDW-1" value="&lt;p style=&quot;line-height: 1.8; margin-top: 0pt; margin-bottom: 0pt; font-size: 11px;&quot; dir=&quot;ltr&quot;&gt;&lt;/p&gt;&lt;div style=&quot;font-size: 11px;&quot;&gt;&lt;/div&gt;&lt;span style=&quot;font-size: 11px; background-color: transparent; font-variant-numeric: normal; font-variant-east-asian: normal; font-variant-alternates: normal; font-variant-position: normal; vertical-align: baseline;&quot;&gt;Queremos crear una aplicación móvil de actividad física en la que se registren de manera individual el usuario y el ejercicio que desea realizar. Esta aplicación está focalizada a realizar todo aquel ejercicio sin necesidad de ser profesional pudiendo elegir el nivel de esfuerzo y de dificultad que desees en la rutina que quieras establecer. En primer lugar el usuario debe escoger el tipo de actividad a la que se quiere someter ya sea cardio, levantamiento de pesas o más tipos que se establecerán luego. Una vez que se haya elegido el tipo de actividad podrá focalizar una&amp;nbsp; o varias zonas del cuerpo que quiera trabajar más y se le darán a disposición unos ejercicios los cuales registrarán las veces y el tiempo que se han realizado así como la dificultad elegida en cada momento de repetición. En segundo lugar después de elegir la actividad con su determinado ejercicio en la aplicación se establecerán las metas a las que quiere llegar el usuario que se organizarán por el registro continuo de los ejercicios realizados. Por otra parte la aplicación dispondrá de un apartado de dietas en las que se podrá elegir una determinada dieta de entre las disponibles.&lt;/span&gt;&lt;p style=&quot;font-size: 11px;&quot;&gt;&lt;/p&gt;&lt;span id=&quot;docs-internal-guid-8e93c218-7fff-2fc9-c52b-f58a5ba16b33&quot; style=&quot;font-size: 11px;&quot;&gt;&lt;/span&gt;" style="text;html=1;strokeColor=none;fillColor=none;align=left;verticalAlign=middle;whiteSpace=wrap;rounded=0;fontSize=11;fontFamily=Verdana;" vertex="1" parent="1">
          <mxGeometry x="40" y="40" width="750" height="140" as="geometry" />
        </mxCell>
        <mxCell id="4WxtduSmjNVkcB8dckDW-85" style="edgeStyle=orthogonalEdgeStyle;rounded=0;orthogonalLoop=1;jettySize=auto;html=1;entryX=0.5;entryY=0;entryDx=0;entryDy=0;endArrow=none;endFill=0;" edge="1" parent="1" source="4WxtduSmjNVkcB8dckDW-2" target="4WxtduSmjNVkcB8dckDW-63">
          <mxGeometry relative="1" as="geometry" />
        </mxCell>
        <mxCell id="4WxtduSmjNVkcB8dckDW-89" style="edgeStyle=orthogonalEdgeStyle;rounded=0;orthogonalLoop=1;jettySize=auto;html=1;entryX=1;entryY=0.5;entryDx=0;entryDy=0;endArrow=none;endFill=0;" edge="1" parent="1" source="4WxtduSmjNVkcB8dckDW-2" target="4WxtduSmjNVkcB8dckDW-60">
          <mxGeometry relative="1" as="geometry" />
        </mxCell>
        <mxCell id="4WxtduSmjNVkcB8dckDW-97" style="edgeStyle=orthogonalEdgeStyle;rounded=0;orthogonalLoop=1;jettySize=auto;html=1;entryX=0;entryY=0.5;entryDx=0;entryDy=0;endArrow=none;endFill=0;" edge="1" parent="1" source="4WxtduSmjNVkcB8dckDW-2" target="4WxtduSmjNVkcB8dckDW-62">
          <mxGeometry relative="1" as="geometry" />
        </mxCell>
        <mxCell id="4WxtduSmjNVkcB8dckDW-2" value="Usuario" style="rounded=0;whiteSpace=wrap;html=1;fillColor=#97D077;" vertex="1" parent="1">
          <mxGeometry x="260" y="560" width="120" height="60" as="geometry" />
        </mxCell>
        <mxCell id="4WxtduSmjNVkcB8dckDW-75" style="edgeStyle=orthogonalEdgeStyle;rounded=0;orthogonalLoop=1;jettySize=auto;html=1;exitX=1;exitY=0.5;exitDx=0;exitDy=0;endArrow=none;endFill=0;" edge="1" parent="1" source="4WxtduSmjNVkcB8dckDW-3" target="4WxtduSmjNVkcB8dckDW-68">
          <mxGeometry relative="1" as="geometry" />
        </mxCell>
        <mxCell id="4WxtduSmjNVkcB8dckDW-3" value="Ejercicio" style="rounded=0;whiteSpace=wrap;html=1;fillColor=#97D077;" vertex="1" parent="1">
          <mxGeometry x="780" y="340" width="120" height="60" as="geometry" />
        </mxCell>
        <mxCell id="4WxtduSmjNVkcB8dckDW-159" style="rounded=0;orthogonalLoop=1;jettySize=auto;html=1;exitX=0.5;exitY=1;exitDx=0;exitDy=0;entryX=0.5;entryY=0;entryDx=0;entryDy=0;endArrow=none;endFill=0;" edge="1" parent="1" source="4WxtduSmjNVkcB8dckDW-5" target="4WxtduSmjNVkcB8dckDW-3">
          <mxGeometry relative="1" as="geometry" />
        </mxCell>
        <mxCell id="4WxtduSmjNVkcB8dckDW-5" value="dificultad" style="ellipse;whiteSpace=wrap;html=1;fillColor=#FFCE9F;" vertex="1" parent="1">
          <mxGeometry x="850" y="250" width="100" height="60" as="geometry" />
        </mxCell>
        <mxCell id="4WxtduSmjNVkcB8dckDW-72" value="" style="edgeStyle=orthogonalEdgeStyle;rounded=0;orthogonalLoop=1;jettySize=auto;html=1;endArrow=none;endFill=0;" edge="1" parent="1" source="4WxtduSmjNVkcB8dckDW-10" target="4WxtduSmjNVkcB8dckDW-71">
          <mxGeometry relative="1" as="geometry" />
        </mxCell>
        <mxCell id="4WxtduSmjNVkcB8dckDW-108" style="edgeStyle=orthogonalEdgeStyle;rounded=0;orthogonalLoop=1;jettySize=auto;html=1;exitX=1;exitY=0.5;exitDx=0;exitDy=0;entryX=0;entryY=0.5;entryDx=0;entryDy=0;endArrow=none;endFill=0;" edge="1" parent="1" source="4WxtduSmjNVkcB8dckDW-10" target="4WxtduSmjNVkcB8dckDW-107">
          <mxGeometry relative="1" as="geometry" />
        </mxCell>
        <mxCell id="4WxtduSmjNVkcB8dckDW-10" value="Detalle Rutina" style="rounded=0;whiteSpace=wrap;html=1;fillColor=#97D077;" vertex="1" parent="1">
          <mxGeometry x="780" y="560" width="120" height="60" as="geometry" />
        </mxCell>
        <mxCell id="4WxtduSmjNVkcB8dckDW-12" value="dificultad repeticion" style="ellipse;whiteSpace=wrap;html=1;fillColor=#FFCE9F;" vertex="1" parent="1">
          <mxGeometry x="1050" y="810" width="100" height="60" as="geometry" />
        </mxCell>
        <mxCell id="4WxtduSmjNVkcB8dckDW-13" value="Peso" style="rounded=0;whiteSpace=wrap;html=1;fillColor=#97D077;" vertex="1" parent="1">
          <mxGeometry x="-240" y="380" width="120" height="60" as="geometry" />
        </mxCell>
        <mxCell id="4WxtduSmjNVkcB8dckDW-87" style="edgeStyle=orthogonalEdgeStyle;rounded=0;orthogonalLoop=1;jettySize=auto;html=1;entryX=0.5;entryY=0;entryDx=0;entryDy=0;endArrow=none;endFill=0;" edge="1" parent="1" source="4WxtduSmjNVkcB8dckDW-14" target="4WxtduSmjNVkcB8dckDW-64">
          <mxGeometry relative="1" as="geometry" />
        </mxCell>
        <mxCell id="4WxtduSmjNVkcB8dckDW-14" value="Dietas" style="rounded=0;whiteSpace=wrap;html=1;fillColor=#97D077;" vertex="1" parent="1">
          <mxGeometry x="260" y="770" width="120" height="60" as="geometry" />
        </mxCell>
        <mxCell id="4WxtduSmjNVkcB8dckDW-151" style="rounded=0;orthogonalLoop=1;jettySize=auto;html=1;exitX=0.5;exitY=0;exitDx=0;exitDy=0;entryX=0.5;entryY=1;entryDx=0;entryDy=0;endArrow=none;endFill=0;" edge="1" parent="1" source="4WxtduSmjNVkcB8dckDW-15" target="4WxtduSmjNVkcB8dckDW-36">
          <mxGeometry relative="1" as="geometry" />
        </mxCell>
        <mxCell id="4WxtduSmjNVkcB8dckDW-15" value="tipo" style="ellipse;whiteSpace=wrap;html=1;fillColor=#FFCE9F;" vertex="1" parent="1">
          <mxGeometry x="590" y="650" width="100" height="60" as="geometry" />
        </mxCell>
        <mxCell id="4WxtduSmjNVkcB8dckDW-16" value="Musculo" style="rounded=0;whiteSpace=wrap;html=1;fillColor=#97D077;" vertex="1" parent="1">
          <mxGeometry x="1040" y="340" width="120" height="60" as="geometry" />
        </mxCell>
        <mxCell id="4WxtduSmjNVkcB8dckDW-161" style="rounded=0;orthogonalLoop=1;jettySize=auto;html=1;exitX=0.5;exitY=1;exitDx=0;exitDy=0;entryX=0.5;entryY=0;entryDx=0;entryDy=0;endArrow=none;endFill=0;" edge="1" parent="1" source="4WxtduSmjNVkcB8dckDW-17" target="4WxtduSmjNVkcB8dckDW-16">
          <mxGeometry relative="1" as="geometry" />
        </mxCell>
        <mxCell id="4WxtduSmjNVkcB8dckDW-17" value="zona cuerpo" style="ellipse;whiteSpace=wrap;html=1;fillColor=#FFCE9F;" vertex="1" parent="1">
          <mxGeometry x="990" y="250" width="100" height="60" as="geometry" />
        </mxCell>
        <mxCell id="4WxtduSmjNVkcB8dckDW-18" value="Recetas" style="rounded=0;whiteSpace=wrap;html=1;fillColor=#97D077;" vertex="1" parent="1">
          <mxGeometry x="260" y="930" width="120" height="60" as="geometry" />
        </mxCell>
        <mxCell id="4WxtduSmjNVkcB8dckDW-146" style="rounded=0;orthogonalLoop=1;jettySize=auto;html=1;exitX=0.5;exitY=0;exitDx=0;exitDy=0;entryX=0.5;entryY=1;entryDx=0;entryDy=0;endArrow=none;endFill=0;" edge="1" parent="1" source="4WxtduSmjNVkcB8dckDW-19" target="4WxtduSmjNVkcB8dckDW-2">
          <mxGeometry relative="1" as="geometry" />
        </mxCell>
        <mxCell id="4WxtduSmjNVkcB8dckDW-19" value="apellido(s)" style="ellipse;whiteSpace=wrap;html=1;fillColor=#FFCE9F;" vertex="1" parent="1">
          <mxGeometry x="335" y="650" width="100" height="60" as="geometry" />
        </mxCell>
        <mxCell id="4WxtduSmjNVkcB8dckDW-144" style="rounded=0;orthogonalLoop=1;jettySize=auto;html=1;exitX=0.5;exitY=0;exitDx=0;exitDy=0;entryX=0.5;entryY=1;entryDx=0;entryDy=0;startArrow=none;startFill=0;endArrow=none;endFill=0;" edge="1" parent="1" source="4WxtduSmjNVkcB8dckDW-21" target="4WxtduSmjNVkcB8dckDW-2">
          <mxGeometry relative="1" as="geometry" />
        </mxCell>
        <mxCell id="4WxtduSmjNVkcB8dckDW-21" value="nombre" style="ellipse;whiteSpace=wrap;html=1;fillColor=#FFCE9F;" vertex="1" parent="1">
          <mxGeometry x="205" y="650" width="100" height="60" as="geometry" />
        </mxCell>
        <mxCell id="4WxtduSmjNVkcB8dckDW-137" style="rounded=0;orthogonalLoop=1;jettySize=auto;html=1;exitX=0;exitY=1;exitDx=0;exitDy=0;entryX=0.5;entryY=0;entryDx=0;entryDy=0;endArrow=none;endFill=0;" edge="1" parent="1" source="4WxtduSmjNVkcB8dckDW-22" target="4WxtduSmjNVkcB8dckDW-2">
          <mxGeometry relative="1" as="geometry" />
        </mxCell>
        <mxCell id="4WxtduSmjNVkcB8dckDW-22" value="fuerza objetivo" style="ellipse;whiteSpace=wrap;html=1;fillColor=#FFCE9F;" vertex="1" parent="1">
          <mxGeometry x="340" y="330" width="100" height="60" as="geometry" />
        </mxCell>
        <mxCell id="4WxtduSmjNVkcB8dckDW-135" style="rounded=0;orthogonalLoop=1;jettySize=auto;html=1;exitX=0;exitY=0.5;exitDx=0;exitDy=0;entryX=0.5;entryY=0;entryDx=0;entryDy=0;endArrow=none;endFill=0;" edge="1" parent="1" source="4WxtduSmjNVkcB8dckDW-23" target="4WxtduSmjNVkcB8dckDW-2">
          <mxGeometry relative="1" as="geometry" />
        </mxCell>
        <mxCell id="4WxtduSmjNVkcB8dckDW-23" value="resistencia objetivo" style="ellipse;whiteSpace=wrap;html=1;fillColor=#FFCE9F;" vertex="1" parent="1">
          <mxGeometry x="330" y="260" width="100" height="60" as="geometry" />
        </mxCell>
        <mxCell id="4WxtduSmjNVkcB8dckDW-138" style="rounded=0;orthogonalLoop=1;jettySize=auto;html=1;exitX=1;exitY=1;exitDx=0;exitDy=0;entryX=0.5;entryY=0;entryDx=0;entryDy=0;endArrow=none;endFill=0;" edge="1" parent="1" source="4WxtduSmjNVkcB8dckDW-24" target="4WxtduSmjNVkcB8dckDW-2">
          <mxGeometry relative="1" as="geometry" />
        </mxCell>
        <mxCell id="4WxtduSmjNVkcB8dckDW-24" value="fuerza actual" style="ellipse;whiteSpace=wrap;html=1;fillColor=#FFCE9F;" vertex="1" parent="1">
          <mxGeometry x="200" y="330" width="100" height="60" as="geometry" />
        </mxCell>
        <mxCell id="4WxtduSmjNVkcB8dckDW-136" style="rounded=0;orthogonalLoop=1;jettySize=auto;html=1;exitX=1;exitY=0.5;exitDx=0;exitDy=0;entryX=0.5;entryY=0;entryDx=0;entryDy=0;endArrow=none;endFill=0;" edge="1" parent="1" source="4WxtduSmjNVkcB8dckDW-25" target="4WxtduSmjNVkcB8dckDW-2">
          <mxGeometry relative="1" as="geometry" />
        </mxCell>
        <mxCell id="4WxtduSmjNVkcB8dckDW-25" value="resistencia actual" style="ellipse;whiteSpace=wrap;html=1;fillColor=#FFCE9F;" vertex="1" parent="1">
          <mxGeometry x="210" y="260" width="100" height="60" as="geometry" />
        </mxCell>
        <mxCell id="4WxtduSmjNVkcB8dckDW-175" style="rounded=0;orthogonalLoop=1;jettySize=auto;html=1;exitX=1;exitY=0.5;exitDx=0;exitDy=0;entryX=0;entryY=0.5;entryDx=0;entryDy=0;endArrow=none;endFill=0;" edge="1" parent="1" source="4WxtduSmjNVkcB8dckDW-26" target="4WxtduSmjNVkcB8dckDW-18">
          <mxGeometry relative="1" as="geometry" />
        </mxCell>
        <mxCell id="4WxtduSmjNVkcB8dckDW-26" value="nombre" style="ellipse;whiteSpace=wrap;html=1;fillColor=#FFCE9F;" vertex="1" parent="1">
          <mxGeometry x="130" y="890" width="100" height="60" as="geometry" />
        </mxCell>
        <mxCell id="4WxtduSmjNVkcB8dckDW-126" style="edgeStyle=orthogonalEdgeStyle;rounded=0;orthogonalLoop=1;jettySize=auto;html=1;entryX=0;entryY=0.5;entryDx=0;entryDy=0;endArrow=circle;endFill=0;" edge="1" parent="1" source="4WxtduSmjNVkcB8dckDW-27" target="4WxtduSmjNVkcB8dckDW-125">
          <mxGeometry relative="1" as="geometry">
            <Array as="points">
              <mxPoint x="-10" y="590" />
              <mxPoint x="-10" y="590" />
            </Array>
          </mxGeometry>
        </mxCell>
        <mxCell id="4WxtduSmjNVkcB8dckDW-27" value="Registro" style="rounded=0;whiteSpace=wrap;html=1;fillColor=#97D077;" vertex="1" parent="1">
          <mxGeometry y="560" width="120" height="60" as="geometry" />
        </mxCell>
        <mxCell id="4WxtduSmjNVkcB8dckDW-28" value="Resistencia" style="rounded=0;whiteSpace=wrap;html=1;fillColor=#97D077;" vertex="1" parent="1">
          <mxGeometry x="-240" y="740" width="120" height="60" as="geometry" />
        </mxCell>
        <mxCell id="4WxtduSmjNVkcB8dckDW-198" style="rounded=0;orthogonalLoop=1;jettySize=auto;html=1;exitX=0;exitY=0.5;exitDx=0;exitDy=0;entryX=1;entryY=0.5;entryDx=0;entryDy=0;endArrow=none;endFill=0;" edge="1" parent="1" source="4WxtduSmjNVkcB8dckDW-29" target="4WxtduSmjNVkcB8dckDW-13">
          <mxGeometry relative="1" as="geometry" />
        </mxCell>
        <mxCell id="4WxtduSmjNVkcB8dckDW-29" value="fecha&lt;br&gt;(calc)" style="ellipse;whiteSpace=wrap;html=1;fillColor=#FFCE9F;" vertex="1" parent="1">
          <mxGeometry x="-90" y="345" width="100" height="60" as="geometry" />
        </mxCell>
        <mxCell id="4WxtduSmjNVkcB8dckDW-200" style="rounded=0;orthogonalLoop=1;jettySize=auto;html=1;exitX=0;exitY=0.5;exitDx=0;exitDy=0;entryX=1;entryY=0.5;entryDx=0;entryDy=0;endArrow=none;endFill=0;" edge="1" parent="1" source="4WxtduSmjNVkcB8dckDW-30" target="4WxtduSmjNVkcB8dckDW-13">
          <mxGeometry relative="1" as="geometry" />
        </mxCell>
        <mxCell id="4WxtduSmjNVkcB8dckDW-30" value="peso&lt;br&gt;(calc)" style="ellipse;whiteSpace=wrap;html=1;fillColor=#FFCE9F;" vertex="1" parent="1">
          <mxGeometry x="-90" y="415" width="100" height="60" as="geometry" />
        </mxCell>
        <mxCell id="4WxtduSmjNVkcB8dckDW-201" style="rounded=0;orthogonalLoop=1;jettySize=auto;html=1;exitX=0.5;exitY=1;exitDx=0;exitDy=0;entryX=0.5;entryY=0;entryDx=0;entryDy=0;endArrow=none;endFill=0;" edge="1" parent="1" source="4WxtduSmjNVkcB8dckDW-31" target="4WxtduSmjNVkcB8dckDW-124">
          <mxGeometry relative="1" as="geometry" />
        </mxCell>
        <mxCell id="4WxtduSmjNVkcB8dckDW-31" value="fecha&lt;br&gt;(calc)" style="ellipse;whiteSpace=wrap;html=1;fillColor=#FFCE9F;" vertex="1" parent="1">
          <mxGeometry x="-250" y="470" width="100" height="60" as="geometry" />
        </mxCell>
        <mxCell id="4WxtduSmjNVkcB8dckDW-203" style="rounded=0;orthogonalLoop=1;jettySize=auto;html=1;exitX=0.5;exitY=0;exitDx=0;exitDy=0;entryX=0.5;entryY=1;entryDx=0;entryDy=0;endArrow=none;endFill=0;" edge="1" parent="1" source="4WxtduSmjNVkcB8dckDW-32" target="4WxtduSmjNVkcB8dckDW-124">
          <mxGeometry relative="1" as="geometry" />
        </mxCell>
        <mxCell id="4WxtduSmjNVkcB8dckDW-32" value="fuerza&lt;br&gt;(calc)" style="ellipse;whiteSpace=wrap;html=1;fillColor=#FFCE9F;" vertex="1" parent="1">
          <mxGeometry x="-250" y="650" width="100" height="60" as="geometry" />
        </mxCell>
        <mxCell id="4WxtduSmjNVkcB8dckDW-205" style="rounded=0;orthogonalLoop=1;jettySize=auto;html=1;exitX=0;exitY=0.5;exitDx=0;exitDy=0;entryX=1;entryY=0.5;entryDx=0;entryDy=0;endArrow=none;endFill=0;" edge="1" parent="1" source="4WxtduSmjNVkcB8dckDW-33" target="4WxtduSmjNVkcB8dckDW-28">
          <mxGeometry relative="1" as="geometry" />
        </mxCell>
        <mxCell id="4WxtduSmjNVkcB8dckDW-33" value="fecha&lt;br&gt;(calc)" style="ellipse;whiteSpace=wrap;html=1;fillColor=#FFCE9F;" vertex="1" parent="1">
          <mxGeometry x="-90" y="705" width="100" height="60" as="geometry" />
        </mxCell>
        <mxCell id="4WxtduSmjNVkcB8dckDW-207" style="rounded=0;orthogonalLoop=1;jettySize=auto;html=1;exitX=0;exitY=0.5;exitDx=0;exitDy=0;entryX=1;entryY=0.5;entryDx=0;entryDy=0;endArrow=none;endFill=0;" edge="1" parent="1" source="4WxtduSmjNVkcB8dckDW-34" target="4WxtduSmjNVkcB8dckDW-28">
          <mxGeometry relative="1" as="geometry" />
        </mxCell>
        <mxCell id="4WxtduSmjNVkcB8dckDW-34" value="resistencia&lt;br&gt;(calc)" style="ellipse;whiteSpace=wrap;html=1;fillColor=#FFCE9F;" vertex="1" parent="1">
          <mxGeometry x="-90" y="775" width="100" height="60" as="geometry" />
        </mxCell>
        <mxCell id="4WxtduSmjNVkcB8dckDW-81" style="edgeStyle=orthogonalEdgeStyle;rounded=0;orthogonalLoop=1;jettySize=auto;html=1;entryX=0;entryY=0.5;entryDx=0;entryDy=0;endArrow=none;endFill=0;" edge="1" parent="1" source="4WxtduSmjNVkcB8dckDW-36" target="4WxtduSmjNVkcB8dckDW-65">
          <mxGeometry relative="1" as="geometry">
            <mxPoint x="700" y="590" as="targetPoint" />
          </mxGeometry>
        </mxCell>
        <mxCell id="4WxtduSmjNVkcB8dckDW-36" value="Rutina" style="rounded=0;whiteSpace=wrap;html=1;fillColor=#97D077;" vertex="1" parent="1">
          <mxGeometry x="520" y="560" width="120" height="60" as="geometry" />
        </mxCell>
        <mxCell id="4WxtduSmjNVkcB8dckDW-147" style="rounded=0;orthogonalLoop=1;jettySize=auto;html=1;exitX=1;exitY=1;exitDx=0;exitDy=0;entryX=0.5;entryY=0;entryDx=0;entryDy=0;endArrow=none;endFill=0;" edge="1" parent="1" source="4WxtduSmjNVkcB8dckDW-37" target="4WxtduSmjNVkcB8dckDW-36">
          <mxGeometry relative="1" as="geometry" />
        </mxCell>
        <mxCell id="4WxtduSmjNVkcB8dckDW-37" value="dificultad media&lt;br&gt;(calc)" style="ellipse;whiteSpace=wrap;html=1;fillColor=#FFCE9F;" vertex="1" parent="1">
          <mxGeometry x="470" y="470" width="100" height="60" as="geometry" />
        </mxCell>
        <mxCell id="4WxtduSmjNVkcB8dckDW-150" style="rounded=0;orthogonalLoop=1;jettySize=auto;html=1;exitX=0.5;exitY=0;exitDx=0;exitDy=0;entryX=0.5;entryY=1;entryDx=0;entryDy=0;endArrow=none;endFill=0;" edge="1" parent="1" source="4WxtduSmjNVkcB8dckDW-38" target="4WxtduSmjNVkcB8dckDW-36">
          <mxGeometry relative="1" as="geometry" />
        </mxCell>
        <mxCell id="4WxtduSmjNVkcB8dckDW-38" value="fecha" style="ellipse;whiteSpace=wrap;html=1;fillColor=#FFCE9F;" vertex="1" parent="1">
          <mxGeometry x="470" y="650" width="100" height="60" as="geometry" />
        </mxCell>
        <mxCell id="4WxtduSmjNVkcB8dckDW-139" style="rounded=0;orthogonalLoop=1;jettySize=auto;html=1;exitX=0;exitY=1;exitDx=0;exitDy=0;entryX=0.5;entryY=0;entryDx=0;entryDy=0;endArrow=none;endFill=0;" edge="1" parent="1" source="4WxtduSmjNVkcB8dckDW-41" target="4WxtduSmjNVkcB8dckDW-2">
          <mxGeometry relative="1" as="geometry" />
        </mxCell>
        <mxCell id="4WxtduSmjNVkcB8dckDW-41" value="peso objetivo" style="ellipse;whiteSpace=wrap;html=1;fillColor=#FFCE9F;" vertex="1" parent="1">
          <mxGeometry x="350" y="400" width="100" height="60" as="geometry" />
        </mxCell>
        <mxCell id="4WxtduSmjNVkcB8dckDW-141" style="rounded=0;orthogonalLoop=1;jettySize=auto;html=1;exitX=1;exitY=1;exitDx=0;exitDy=0;entryX=0.5;entryY=0;entryDx=0;entryDy=0;endArrow=none;endFill=0;" edge="1" parent="1" source="4WxtduSmjNVkcB8dckDW-42" target="4WxtduSmjNVkcB8dckDW-2">
          <mxGeometry relative="1" as="geometry" />
        </mxCell>
        <mxCell id="4WxtduSmjNVkcB8dckDW-42" value="peso actual" style="ellipse;whiteSpace=wrap;html=1;fillColor=#FFCE9F;" vertex="1" parent="1">
          <mxGeometry x="190" y="400" width="100" height="60" as="geometry" />
        </mxCell>
        <mxCell id="4WxtduSmjNVkcB8dckDW-142" style="rounded=0;orthogonalLoop=1;jettySize=auto;html=1;exitX=0;exitY=0.5;exitDx=0;exitDy=0;entryX=0.5;entryY=0;entryDx=0;entryDy=0;endArrow=none;endFill=0;" edge="1" parent="1" source="4WxtduSmjNVkcB8dckDW-43" target="4WxtduSmjNVkcB8dckDW-2">
          <mxGeometry relative="1" as="geometry" />
        </mxCell>
        <mxCell id="4WxtduSmjNVkcB8dckDW-43" value="ID" style="ellipse;whiteSpace=wrap;html=1;strokeWidth=2;fontStyle=1;fontSize=14;fillColor=#FFCE9F;" vertex="1" parent="1">
          <mxGeometry x="360" y="470" width="100" height="60" as="geometry" />
        </mxCell>
        <mxCell id="4WxtduSmjNVkcB8dckDW-143" style="rounded=0;orthogonalLoop=1;jettySize=auto;html=1;exitX=1;exitY=0.5;exitDx=0;exitDy=0;entryX=0.5;entryY=0;entryDx=0;entryDy=0;endArrow=none;endFill=0;" edge="1" parent="1" source="4WxtduSmjNVkcB8dckDW-44" target="4WxtduSmjNVkcB8dckDW-2">
          <mxGeometry relative="1" as="geometry" />
        </mxCell>
        <mxCell id="4WxtduSmjNVkcB8dckDW-44" value="e-mail" style="ellipse;whiteSpace=wrap;html=1;fillColor=#FFCE9F;strokeWidth=3;dashed=1;dashPattern=1 2;fontStyle=1" vertex="1" parent="1">
          <mxGeometry x="180" y="470" width="100" height="60" as="geometry" />
        </mxCell>
        <mxCell id="4WxtduSmjNVkcB8dckDW-171" style="rounded=0;orthogonalLoop=1;jettySize=auto;html=1;exitX=0;exitY=0.5;exitDx=0;exitDy=0;entryX=1;entryY=0.5;entryDx=0;entryDy=0;endArrow=none;endFill=0;" edge="1" parent="1" source="4WxtduSmjNVkcB8dckDW-48" target="4WxtduSmjNVkcB8dckDW-14">
          <mxGeometry relative="1" as="geometry" />
        </mxCell>
        <mxCell id="4WxtduSmjNVkcB8dckDW-48" value="ID" style="ellipse;whiteSpace=wrap;html=1;strokeWidth=2;fontStyle=1;fontSize=14;fillColor=#FFCE9F;" vertex="1" parent="1">
          <mxGeometry x="410" y="770" width="100" height="60" as="geometry" />
        </mxCell>
        <mxCell id="4WxtduSmjNVkcB8dckDW-190" style="rounded=0;orthogonalLoop=1;jettySize=auto;html=1;exitX=0;exitY=0.5;exitDx=0;exitDy=0;entryX=1;entryY=0.5;entryDx=0;entryDy=0;endArrow=none;endFill=0;" edge="1" parent="1" source="4WxtduSmjNVkcB8dckDW-49" target="4WxtduSmjNVkcB8dckDW-18">
          <mxGeometry relative="1" as="geometry" />
        </mxCell>
        <mxCell id="4WxtduSmjNVkcB8dckDW-49" value="ID" style="ellipse;whiteSpace=wrap;html=1;strokeWidth=2;fontStyle=1;fontSize=14;fillColor=#FFCE9F;" vertex="1" parent="1">
          <mxGeometry x="410" y="930" width="100" height="60" as="geometry" />
        </mxCell>
        <mxCell id="4WxtduSmjNVkcB8dckDW-172" style="rounded=0;orthogonalLoop=1;jettySize=auto;html=1;exitX=1;exitY=0.5;exitDx=0;exitDy=0;entryX=0;entryY=0.5;entryDx=0;entryDy=0;endArrow=none;endFill=0;" edge="1" parent="1" source="4WxtduSmjNVkcB8dckDW-50" target="4WxtduSmjNVkcB8dckDW-14">
          <mxGeometry relative="1" as="geometry" />
        </mxCell>
        <mxCell id="4WxtduSmjNVkcB8dckDW-50" value="tipo" style="ellipse;whiteSpace=wrap;html=1;fillColor=#FFCE9F;" vertex="1" parent="1">
          <mxGeometry x="130" y="730" width="100" height="60" as="geometry" />
        </mxCell>
        <mxCell id="4WxtduSmjNVkcB8dckDW-216" style="rounded=0;orthogonalLoop=1;jettySize=auto;html=1;exitX=1;exitY=0.5;exitDx=0;exitDy=0;entryX=0;entryY=0.5;entryDx=0;entryDy=0;endArrow=none;endFill=0;" edge="1" parent="1" source="4WxtduSmjNVkcB8dckDW-51" target="4WxtduSmjNVkcB8dckDW-18">
          <mxGeometry relative="1" as="geometry" />
        </mxCell>
        <mxCell id="4WxtduSmjNVkcB8dckDW-51" value="descripción" style="ellipse;whiteSpace=wrap;html=1;fillColor=#FFCE9F;" vertex="1" parent="1">
          <mxGeometry x="130" y="970" width="100" height="60" as="geometry" />
        </mxCell>
        <mxCell id="4WxtduSmjNVkcB8dckDW-148" style="rounded=0;orthogonalLoop=1;jettySize=auto;html=1;exitX=0;exitY=1;exitDx=0;exitDy=0;entryX=0.5;entryY=0;entryDx=0;entryDy=0;endArrow=none;endFill=0;" edge="1" parent="1" source="4WxtduSmjNVkcB8dckDW-52" target="4WxtduSmjNVkcB8dckDW-36">
          <mxGeometry relative="1" as="geometry" />
        </mxCell>
        <mxCell id="4WxtduSmjNVkcB8dckDW-52" value="ID" style="ellipse;whiteSpace=wrap;html=1;strokeWidth=2;fontStyle=1;fontSize=14;fillColor=#FFCE9F;" vertex="1" parent="1">
          <mxGeometry x="590" y="470" width="100" height="60" as="geometry" />
        </mxCell>
        <mxCell id="4WxtduSmjNVkcB8dckDW-152" style="rounded=0;orthogonalLoop=1;jettySize=auto;html=1;exitX=0.5;exitY=0;exitDx=0;exitDy=0;entryX=0.5;entryY=1;entryDx=0;entryDy=0;endArrow=none;endFill=0;" edge="1" parent="1" source="4WxtduSmjNVkcB8dckDW-53" target="4WxtduSmjNVkcB8dckDW-10">
          <mxGeometry relative="1" as="geometry" />
        </mxCell>
        <mxCell id="4WxtduSmjNVkcB8dckDW-53" value="ID" style="ellipse;whiteSpace=wrap;html=1;strokeWidth=2;fontStyle=1;fontSize=14;fillColor=#FFCE9F;" vertex="1" parent="1">
          <mxGeometry x="730" y="650" width="100" height="60" as="geometry" />
        </mxCell>
        <mxCell id="4WxtduSmjNVkcB8dckDW-149" style="rounded=0;orthogonalLoop=1;jettySize=auto;html=1;exitX=0.5;exitY=1;exitDx=0;exitDy=0;entryX=0.5;entryY=0;entryDx=0;entryDy=0;endArrow=none;endFill=0;" edge="1" parent="1" source="4WxtduSmjNVkcB8dckDW-54" target="4WxtduSmjNVkcB8dckDW-36">
          <mxGeometry relative="1" as="geometry" />
        </mxCell>
        <mxCell id="4WxtduSmjNVkcB8dckDW-54" value="nombre" style="ellipse;whiteSpace=wrap;html=1;fillColor=#FFCE9F;" vertex="1" parent="1">
          <mxGeometry x="530" y="400" width="100" height="60" as="geometry" />
        </mxCell>
        <mxCell id="4WxtduSmjNVkcB8dckDW-160" style="rounded=0;orthogonalLoop=1;jettySize=auto;html=1;exitX=0.5;exitY=1;exitDx=0;exitDy=0;entryX=0.5;entryY=0;entryDx=0;entryDy=0;endArrow=none;endFill=0;" edge="1" parent="1" source="4WxtduSmjNVkcB8dckDW-56" target="4WxtduSmjNVkcB8dckDW-3">
          <mxGeometry relative="1" as="geometry" />
        </mxCell>
        <mxCell id="4WxtduSmjNVkcB8dckDW-56" value="tipo" style="ellipse;whiteSpace=wrap;html=1;fillColor=#FFCE9F;" vertex="1" parent="1">
          <mxGeometry x="730" y="250" width="100" height="60" as="geometry" />
        </mxCell>
        <mxCell id="4WxtduSmjNVkcB8dckDW-157" style="rounded=0;orthogonalLoop=1;jettySize=auto;html=1;exitX=0.5;exitY=0;exitDx=0;exitDy=0;entryX=0.5;entryY=1;entryDx=0;entryDy=0;endArrow=none;endFill=0;" edge="1" parent="1" source="4WxtduSmjNVkcB8dckDW-57" target="4WxtduSmjNVkcB8dckDW-3">
          <mxGeometry relative="1" as="geometry" />
        </mxCell>
        <mxCell id="4WxtduSmjNVkcB8dckDW-57" value="ID" style="ellipse;whiteSpace=wrap;html=1;strokeWidth=2;fontStyle=1;fontSize=14;fillColor=#FFCE9F;" vertex="1" parent="1">
          <mxGeometry x="730" y="430" width="100" height="60" as="geometry" />
        </mxCell>
        <mxCell id="4WxtduSmjNVkcB8dckDW-162" style="rounded=0;orthogonalLoop=1;jettySize=auto;html=1;exitX=0.5;exitY=0;exitDx=0;exitDy=0;entryX=0.5;entryY=1;entryDx=0;entryDy=0;endArrow=none;endFill=0;" edge="1" parent="1" source="4WxtduSmjNVkcB8dckDW-58" target="4WxtduSmjNVkcB8dckDW-16">
          <mxGeometry relative="1" as="geometry" />
        </mxCell>
        <mxCell id="4WxtduSmjNVkcB8dckDW-58" value="ID" style="ellipse;whiteSpace=wrap;html=1;strokeWidth=2;fontStyle=1;fontSize=14;fillColor=#FFCE9F;" vertex="1" parent="1">
          <mxGeometry x="1050" y="420" width="100" height="60" as="geometry" />
        </mxCell>
        <mxCell id="4WxtduSmjNVkcB8dckDW-95" style="edgeStyle=orthogonalEdgeStyle;rounded=0;orthogonalLoop=1;jettySize=auto;html=1;entryX=1;entryY=0.5;entryDx=0;entryDy=0;endArrow=none;endFill=0;" edge="1" parent="1" source="4WxtduSmjNVkcB8dckDW-60" target="4WxtduSmjNVkcB8dckDW-27">
          <mxGeometry relative="1" as="geometry" />
        </mxCell>
        <mxCell id="4WxtduSmjNVkcB8dckDW-60" value="E" style="rhombus;whiteSpace=wrap;html=1;fillColor=#A680B8;" vertex="1" parent="1">
          <mxGeometry x="160" y="560" width="60" height="60" as="geometry" />
        </mxCell>
        <mxCell id="4WxtduSmjNVkcB8dckDW-98" style="edgeStyle=orthogonalEdgeStyle;rounded=0;orthogonalLoop=1;jettySize=auto;html=1;entryX=0;entryY=0.5;entryDx=0;entryDy=0;endArrow=none;endFill=0;" edge="1" parent="1" source="4WxtduSmjNVkcB8dckDW-62" target="4WxtduSmjNVkcB8dckDW-36">
          <mxGeometry relative="1" as="geometry" />
        </mxCell>
        <mxCell id="4WxtduSmjNVkcB8dckDW-62" value="E" style="rhombus;whiteSpace=wrap;html=1;fillColor=#A680B8;" vertex="1" parent="1">
          <mxGeometry x="420" y="560" width="60" height="60" as="geometry" />
        </mxCell>
        <mxCell id="4WxtduSmjNVkcB8dckDW-86" style="edgeStyle=orthogonalEdgeStyle;rounded=0;orthogonalLoop=1;jettySize=auto;html=1;entryX=0.5;entryY=0;entryDx=0;entryDy=0;endArrow=none;endFill=0;" edge="1" parent="1" target="4WxtduSmjNVkcB8dckDW-14">
          <mxGeometry relative="1" as="geometry">
            <mxPoint x="320" y="740" as="sourcePoint" />
          </mxGeometry>
        </mxCell>
        <mxCell id="4WxtduSmjNVkcB8dckDW-63" value="E" style="rhombus;whiteSpace=wrap;html=1;fillColor=#A680B8;" vertex="1" parent="1">
          <mxGeometry x="290" y="690" width="60" height="60" as="geometry" />
        </mxCell>
        <mxCell id="4WxtduSmjNVkcB8dckDW-88" style="edgeStyle=orthogonalEdgeStyle;rounded=0;orthogonalLoop=1;jettySize=auto;html=1;endArrow=none;endFill=0;" edge="1" parent="1" source="4WxtduSmjNVkcB8dckDW-64" target="4WxtduSmjNVkcB8dckDW-18">
          <mxGeometry relative="1" as="geometry" />
        </mxCell>
        <mxCell id="4WxtduSmjNVkcB8dckDW-64" value="E" style="rhombus;whiteSpace=wrap;html=1;fillColor=#A680B8;" vertex="1" parent="1">
          <mxGeometry x="290" y="850" width="60" height="60" as="geometry" />
        </mxCell>
        <mxCell id="4WxtduSmjNVkcB8dckDW-82" style="edgeStyle=orthogonalEdgeStyle;rounded=0;orthogonalLoop=1;jettySize=auto;html=1;entryX=0;entryY=0.5;entryDx=0;entryDy=0;endArrow=none;endFill=0;" edge="1" parent="1" source="4WxtduSmjNVkcB8dckDW-65" target="4WxtduSmjNVkcB8dckDW-10">
          <mxGeometry relative="1" as="geometry" />
        </mxCell>
        <mxCell id="4WxtduSmjNVkcB8dckDW-65" value="E" style="rhombus;whiteSpace=wrap;html=1;fillColor=#A680B8;" vertex="1" parent="1">
          <mxGeometry x="680" y="560" width="60" height="60" as="geometry" />
        </mxCell>
        <mxCell id="4WxtduSmjNVkcB8dckDW-76" style="edgeStyle=orthogonalEdgeStyle;rounded=0;orthogonalLoop=1;jettySize=auto;html=1;exitX=1;exitY=0.5;exitDx=0;exitDy=0;entryX=0;entryY=0.5;entryDx=0;entryDy=0;endArrow=none;endFill=0;" edge="1" parent="1" source="4WxtduSmjNVkcB8dckDW-68" target="4WxtduSmjNVkcB8dckDW-16">
          <mxGeometry relative="1" as="geometry" />
        </mxCell>
        <mxCell id="4WxtduSmjNVkcB8dckDW-68" value="E" style="rhombus;whiteSpace=wrap;html=1;fillColor=#A680B8;" vertex="1" parent="1">
          <mxGeometry x="940" y="340" width="60" height="60" as="geometry" />
        </mxCell>
        <mxCell id="4WxtduSmjNVkcB8dckDW-215" style="rounded=0;orthogonalLoop=1;jettySize=auto;html=1;exitX=0.5;exitY=1;exitDx=0;exitDy=0;entryX=0.5;entryY=0;entryDx=0;entryDy=0;endArrow=none;endFill=0;" edge="1" parent="1" source="4WxtduSmjNVkcB8dckDW-69" target="4WxtduSmjNVkcB8dckDW-16">
          <mxGeometry relative="1" as="geometry" />
        </mxCell>
        <mxCell id="4WxtduSmjNVkcB8dckDW-69" value="nombre" style="ellipse;whiteSpace=wrap;html=1;fillColor=#FFCE9F;" vertex="1" parent="1">
          <mxGeometry x="1110" y="250" width="100" height="60" as="geometry" />
        </mxCell>
        <mxCell id="4WxtduSmjNVkcB8dckDW-158" style="rounded=0;orthogonalLoop=1;jettySize=auto;html=1;exitX=0.5;exitY=0;exitDx=0;exitDy=0;entryX=0.5;entryY=1;entryDx=0;entryDy=0;endArrow=none;endFill=0;" edge="1" parent="1" source="4WxtduSmjNVkcB8dckDW-70" target="4WxtduSmjNVkcB8dckDW-3">
          <mxGeometry relative="1" as="geometry" />
        </mxCell>
        <mxCell id="4WxtduSmjNVkcB8dckDW-70" value="nombre" style="ellipse;whiteSpace=wrap;html=1;fillColor=#FFCE9F;" vertex="1" parent="1">
          <mxGeometry x="850" y="430" width="100" height="60" as="geometry" />
        </mxCell>
        <mxCell id="4WxtduSmjNVkcB8dckDW-74" style="edgeStyle=orthogonalEdgeStyle;rounded=0;orthogonalLoop=1;jettySize=auto;html=1;entryX=0.5;entryY=1;entryDx=0;entryDy=0;endArrow=none;endFill=0;" edge="1" parent="1" source="4WxtduSmjNVkcB8dckDW-71" target="4WxtduSmjNVkcB8dckDW-3">
          <mxGeometry relative="1" as="geometry" />
        </mxCell>
        <mxCell id="4WxtduSmjNVkcB8dckDW-71" value="E" style="rhombus;whiteSpace=wrap;html=1;fillColor=#A680B8;" vertex="1" parent="1">
          <mxGeometry x="810" y="480" width="60" height="60" as="geometry" />
        </mxCell>
        <mxCell id="4WxtduSmjNVkcB8dckDW-111" style="edgeStyle=orthogonalEdgeStyle;rounded=0;orthogonalLoop=1;jettySize=auto;html=1;exitX=0.5;exitY=1;exitDx=0;exitDy=0;entryX=0.5;entryY=0;entryDx=0;entryDy=0;endArrow=none;endFill=0;" edge="1" parent="1" source="4WxtduSmjNVkcB8dckDW-101" target="4WxtduSmjNVkcB8dckDW-110">
          <mxGeometry relative="1" as="geometry" />
        </mxCell>
        <mxCell id="4WxtduSmjNVkcB8dckDW-101" value="Serie" style="rounded=0;whiteSpace=wrap;html=1;fillColor=#97D077;" vertex="1" parent="1">
          <mxGeometry x="1040" y="560" width="120" height="60" as="geometry" />
        </mxCell>
        <mxCell id="4WxtduSmjNVkcB8dckDW-212" style="rounded=0;orthogonalLoop=1;jettySize=auto;html=1;exitX=0.5;exitY=1;exitDx=0;exitDy=0;entryX=0.5;entryY=0;entryDx=0;entryDy=0;endArrow=none;endFill=0;" edge="1" parent="1" source="4WxtduSmjNVkcB8dckDW-102" target="4WxtduSmjNVkcB8dckDW-101">
          <mxGeometry relative="1" as="geometry" />
        </mxCell>
        <mxCell id="4WxtduSmjNVkcB8dckDW-102" value="ID" style="ellipse;whiteSpace=wrap;html=1;strokeWidth=2;fontStyle=1;fontSize=14;fillColor=#FFCE9F;" vertex="1" parent="1">
          <mxGeometry x="990" y="475" width="100" height="60" as="geometry" />
        </mxCell>
        <mxCell id="4WxtduSmjNVkcB8dckDW-211" style="rounded=0;orthogonalLoop=1;jettySize=auto;html=1;exitX=0.5;exitY=1;exitDx=0;exitDy=0;entryX=0.5;entryY=0;entryDx=0;entryDy=0;endArrow=none;endFill=0;" edge="1" parent="1" source="4WxtduSmjNVkcB8dckDW-103" target="4WxtduSmjNVkcB8dckDW-101">
          <mxGeometry relative="1" as="geometry" />
        </mxCell>
        <mxCell id="4WxtduSmjNVkcB8dckDW-103" value="numero" style="ellipse;whiteSpace=wrap;html=1;fillColor=#FFCE9F;" vertex="1" parent="1">
          <mxGeometry x="1110" y="475" width="100" height="60" as="geometry" />
        </mxCell>
        <mxCell id="4WxtduSmjNVkcB8dckDW-105" value="ID" style="ellipse;whiteSpace=wrap;html=1;strokeWidth=2;fontStyle=1;fontSize=14;fillColor=#FFCE9F;" vertex="1" parent="1">
          <mxGeometry x="910" y="720" width="100" height="60" as="geometry" />
        </mxCell>
        <mxCell id="4WxtduSmjNVkcB8dckDW-106" value="numero" style="ellipse;whiteSpace=wrap;html=1;fillColor=#FFCE9F;" vertex="1" parent="1">
          <mxGeometry x="930" y="800" width="100" height="60" as="geometry" />
        </mxCell>
        <mxCell id="4WxtduSmjNVkcB8dckDW-109" style="edgeStyle=orthogonalEdgeStyle;rounded=0;orthogonalLoop=1;jettySize=auto;html=1;exitX=1;exitY=0.5;exitDx=0;exitDy=0;entryX=0;entryY=0.5;entryDx=0;entryDy=0;endArrow=none;endFill=0;" edge="1" parent="1" source="4WxtduSmjNVkcB8dckDW-107" target="4WxtduSmjNVkcB8dckDW-101">
          <mxGeometry relative="1" as="geometry" />
        </mxCell>
        <mxCell id="4WxtduSmjNVkcB8dckDW-107" value="E" style="rhombus;whiteSpace=wrap;html=1;fillColor=#A680B8;" vertex="1" parent="1">
          <mxGeometry x="940" y="560" width="60" height="60" as="geometry" />
        </mxCell>
        <mxCell id="4WxtduSmjNVkcB8dckDW-110" value="E" style="rhombus;whiteSpace=wrap;html=1;fillColor=#A680B8;" vertex="1" parent="1">
          <mxGeometry x="1070" y="640" width="60" height="60" as="geometry" />
        </mxCell>
        <mxCell id="4WxtduSmjNVkcB8dckDW-118" value="" style="group;fillColor=#B9E0A5;" vertex="1" connectable="0" parent="1">
          <mxGeometry x="1040" y="720" width="120" height="60" as="geometry" />
        </mxCell>
        <mxCell id="4WxtduSmjNVkcB8dckDW-114" value="" style="verticalLabelPosition=bottom;verticalAlign=top;html=1;shape=mxgraph.basic.frame;dx=10;whiteSpace=wrap;fillColor=#97D077;" vertex="1" parent="4WxtduSmjNVkcB8dckDW-118">
          <mxGeometry width="120" height="60" as="geometry" />
        </mxCell>
        <mxCell id="4WxtduSmjNVkcB8dckDW-115" value="Repeticion" style="text;html=1;align=center;verticalAlign=middle;resizable=0;points=[];autosize=1;strokeColor=none;fillColor=none;" vertex="1" parent="4WxtduSmjNVkcB8dckDW-118">
          <mxGeometry x="20" y="15" width="80" height="30" as="geometry" />
        </mxCell>
        <mxCell id="4WxtduSmjNVkcB8dckDW-119" style="edgeStyle=orthogonalEdgeStyle;rounded=0;orthogonalLoop=1;jettySize=auto;html=1;exitX=0.25;exitY=1;exitDx=0;exitDy=0;entryX=0;entryY=0;entryDx=30.000000000000004;entryDy=0;entryPerimeter=0;" edge="1" parent="1" source="4WxtduSmjNVkcB8dckDW-101" target="4WxtduSmjNVkcB8dckDW-114">
          <mxGeometry relative="1" as="geometry" />
        </mxCell>
        <mxCell id="4WxtduSmjNVkcB8dckDW-153" style="rounded=0;orthogonalLoop=1;jettySize=auto;html=1;exitX=0.5;exitY=0;exitDx=0;exitDy=0;entryX=0.5;entryY=1;entryDx=0;entryDy=0;endArrow=none;endFill=0;" edge="1" parent="1" source="4WxtduSmjNVkcB8dckDW-121" target="4WxtduSmjNVkcB8dckDW-10">
          <mxGeometry relative="1" as="geometry" />
        </mxCell>
        <mxCell id="4WxtduSmjNVkcB8dckDW-121" value="tiempo" style="ellipse;whiteSpace=wrap;html=1;fillColor=#FFCE9F;" vertex="1" parent="1">
          <mxGeometry x="850" y="650" width="100" height="60" as="geometry" />
        </mxCell>
        <mxCell id="4WxtduSmjNVkcB8dckDW-174" style="rounded=0;orthogonalLoop=1;jettySize=auto;html=1;exitX=1;exitY=0.5;exitDx=0;exitDy=0;entryX=0;entryY=0.5;entryDx=0;entryDy=0;endArrow=none;endFill=0;" edge="1" parent="1" source="4WxtduSmjNVkcB8dckDW-122" target="4WxtduSmjNVkcB8dckDW-14">
          <mxGeometry relative="1" as="geometry" />
        </mxCell>
        <mxCell id="4WxtduSmjNVkcB8dckDW-122" value="nombre" style="ellipse;whiteSpace=wrap;html=1;fillColor=#FFCE9F;" vertex="1" parent="1">
          <mxGeometry x="130" y="810" width="100" height="60" as="geometry" />
        </mxCell>
        <mxCell id="4WxtduSmjNVkcB8dckDW-208" style="rounded=0;orthogonalLoop=1;jettySize=auto;html=1;exitX=0;exitY=0.5;exitDx=0;exitDy=0;entryX=1;entryY=0.5;entryDx=0;entryDy=0;endArrow=none;endFill=0;" edge="1" parent="1" source="4WxtduSmjNVkcB8dckDW-123" target="4WxtduSmjNVkcB8dckDW-28">
          <mxGeometry relative="1" as="geometry" />
        </mxCell>
        <mxCell id="4WxtduSmjNVkcB8dckDW-123" value="ID" style="ellipse;whiteSpace=wrap;html=1;strokeWidth=2;fontStyle=1;fontSize=14;fillColor=#FFCE9F;" vertex="1" parent="1">
          <mxGeometry x="10" y="740" width="100" height="60" as="geometry" />
        </mxCell>
        <mxCell id="4WxtduSmjNVkcB8dckDW-124" value="Fuerza" style="rounded=0;whiteSpace=wrap;html=1;fillColor=#97D077;" vertex="1" parent="1">
          <mxGeometry x="-230" y="560" width="120" height="60" as="geometry" />
        </mxCell>
        <mxCell id="4WxtduSmjNVkcB8dckDW-127" style="rounded=0;orthogonalLoop=1;jettySize=auto;html=1;exitX=0.5;exitY=1;exitDx=0;exitDy=0;entryX=0.5;entryY=1;entryDx=0;entryDy=0;endArrow=none;endFill=0;" edge="1" parent="1" source="4WxtduSmjNVkcB8dckDW-125" target="4WxtduSmjNVkcB8dckDW-13">
          <mxGeometry relative="1" as="geometry" />
        </mxCell>
        <mxCell id="4WxtduSmjNVkcB8dckDW-128" style="rounded=0;orthogonalLoop=1;jettySize=auto;html=1;exitX=0.5;exitY=0;exitDx=0;exitDy=0;entryX=0.5;entryY=0;entryDx=0;entryDy=0;endArrow=none;endFill=0;" edge="1" parent="1" source="4WxtduSmjNVkcB8dckDW-125" target="4WxtduSmjNVkcB8dckDW-28">
          <mxGeometry relative="1" as="geometry" />
        </mxCell>
        <mxCell id="4WxtduSmjNVkcB8dckDW-129" style="edgeStyle=orthogonalEdgeStyle;rounded=0;orthogonalLoop=1;jettySize=auto;html=1;entryX=1;entryY=0.5;entryDx=0;entryDy=0;endArrow=none;endFill=0;" edge="1" parent="1" source="4WxtduSmjNVkcB8dckDW-125" target="4WxtduSmjNVkcB8dckDW-124">
          <mxGeometry relative="1" as="geometry" />
        </mxCell>
        <mxCell id="4WxtduSmjNVkcB8dckDW-125" value="" style="triangle;whiteSpace=wrap;html=1;rotation=-180;fillColor=#A680B8;" vertex="1" parent="1">
          <mxGeometry x="-80" y="560" width="50" height="60" as="geometry" />
        </mxCell>
        <mxCell id="4WxtduSmjNVkcB8dckDW-130" value="" style="shape=requiredInterface;html=1;verticalLabelPosition=bottom;sketch=0;direction=south;rotation=90;" vertex="1" parent="1">
          <mxGeometry x="-130" y="580" width="117.5" height="20" as="geometry" />
        </mxCell>
        <mxCell id="4WxtduSmjNVkcB8dckDW-202" style="rounded=0;orthogonalLoop=1;jettySize=auto;html=1;exitX=1;exitY=0.5;exitDx=0;exitDy=0;entryX=0;entryY=0.5;entryDx=0;entryDy=0;endArrow=none;endFill=0;" edge="1" parent="1" source="4WxtduSmjNVkcB8dckDW-132" target="4WxtduSmjNVkcB8dckDW-124">
          <mxGeometry relative="1" as="geometry" />
        </mxCell>
        <mxCell id="4WxtduSmjNVkcB8dckDW-132" value="ID" style="ellipse;whiteSpace=wrap;html=1;strokeWidth=2;fontStyle=1;fontSize=14;fillColor=#FFCE9F;" vertex="1" parent="1">
          <mxGeometry x="-360" y="560" width="100" height="60" as="geometry" />
        </mxCell>
        <mxCell id="4WxtduSmjNVkcB8dckDW-197" style="rounded=0;orthogonalLoop=1;jettySize=auto;html=1;exitX=0;exitY=0.5;exitDx=0;exitDy=0;entryX=1;entryY=0.5;entryDx=0;entryDy=0;endArrow=none;endFill=0;" edge="1" parent="1" source="4WxtduSmjNVkcB8dckDW-133" target="4WxtduSmjNVkcB8dckDW-13">
          <mxGeometry relative="1" as="geometry" />
        </mxCell>
        <mxCell id="4WxtduSmjNVkcB8dckDW-133" value="ID" style="ellipse;whiteSpace=wrap;html=1;strokeWidth=2;fontStyle=1;fontSize=14;fillColor=#FFCE9F;" vertex="1" parent="1">
          <mxGeometry x="10" y="380" width="100" height="60" as="geometry" />
        </mxCell>
        <mxCell id="4WxtduSmjNVkcB8dckDW-204" style="rounded=0;orthogonalLoop=1;jettySize=auto;html=1;exitX=0.5;exitY=0;exitDx=0;exitDy=0;entryX=0.5;entryY=1;entryDx=0;entryDy=0;endArrow=none;endFill=0;" edge="1" parent="1" source="4WxtduSmjNVkcB8dckDW-134" target="4WxtduSmjNVkcB8dckDW-27">
          <mxGeometry relative="1" as="geometry" />
        </mxCell>
        <mxCell id="4WxtduSmjNVkcB8dckDW-134" value="ID" style="ellipse;whiteSpace=wrap;html=1;strokeWidth=2;fontStyle=1;fontSize=14;fillColor=#FFCE9F;" vertex="1" parent="1">
          <mxGeometry x="10" y="650" width="100" height="60" as="geometry" />
        </mxCell>
        <mxCell id="4WxtduSmjNVkcB8dckDW-168" style="rounded=0;orthogonalLoop=1;jettySize=auto;html=1;exitX=0.5;exitY=0;exitDx=0;exitDy=0;entryX=0.5;entryY=1;entryDx=0;entryDy=0;entryPerimeter=0;endArrow=none;endFill=0;" edge="1" parent="1" source="4WxtduSmjNVkcB8dckDW-12" target="4WxtduSmjNVkcB8dckDW-114">
          <mxGeometry relative="1" as="geometry" />
        </mxCell>
        <mxCell id="4WxtduSmjNVkcB8dckDW-209" style="edgeStyle=orthogonalEdgeStyle;rounded=0;orthogonalLoop=1;jettySize=auto;html=1;exitX=0.5;exitY=1;exitDx=0;exitDy=0;entryX=0.5;entryY=0;entryDx=0;entryDy=0;entryPerimeter=0;endArrow=none;endFill=0;" edge="1" parent="1" source="4WxtduSmjNVkcB8dckDW-110" target="4WxtduSmjNVkcB8dckDW-114">
          <mxGeometry relative="1" as="geometry" />
        </mxCell>
        <mxCell id="4WxtduSmjNVkcB8dckDW-213" style="rounded=0;orthogonalLoop=1;jettySize=auto;html=1;exitX=1;exitY=0;exitDx=0;exitDy=0;entryX=0;entryY=1;entryDx=0;entryDy=0;entryPerimeter=0;endArrow=none;endFill=0;" edge="1" parent="1" source="4WxtduSmjNVkcB8dckDW-106" target="4WxtduSmjNVkcB8dckDW-114">
          <mxGeometry relative="1" as="geometry" />
        </mxCell>
        <mxCell id="4WxtduSmjNVkcB8dckDW-214" style="rounded=0;orthogonalLoop=1;jettySize=auto;html=1;exitX=1;exitY=0.5;exitDx=0;exitDy=0;entryX=0;entryY=0.5;entryDx=0;entryDy=0;entryPerimeter=0;endArrow=none;endFill=0;" edge="1" parent="1" source="4WxtduSmjNVkcB8dckDW-105" target="4WxtduSmjNVkcB8dckDW-114">
          <mxGeometry relative="1" as="geometry" />
        </mxCell>
        <mxCell id="4WxtduSmjNVkcB8dckDW-217" value="(0:N)" style="text;html=1;strokeColor=none;fillColor=none;align=center;verticalAlign=middle;whiteSpace=wrap;rounded=0;" vertex="1" parent="1">
          <mxGeometry x="370" y="560" width="60" height="30" as="geometry" />
        </mxCell>
        <mxCell id="4WxtduSmjNVkcB8dckDW-218" value="(0:N)" style="text;html=1;strokeColor=none;fillColor=none;align=center;verticalAlign=middle;whiteSpace=wrap;rounded=0;" vertex="1" parent="1">
          <mxGeometry x="470" y="560" width="60" height="30" as="geometry" />
        </mxCell>
        <mxCell id="4WxtduSmjNVkcB8dckDW-219" value="(1:N)" style="text;html=1;strokeColor=none;fillColor=none;align=center;verticalAlign=middle;whiteSpace=wrap;rounded=0;" vertex="1" parent="1">
          <mxGeometry x="630" y="560" width="60" height="30" as="geometry" />
        </mxCell>
        <mxCell id="4WxtduSmjNVkcB8dckDW-220" value="(1:N)" style="text;html=1;strokeColor=none;fillColor=none;align=center;verticalAlign=middle;whiteSpace=wrap;rounded=0;" vertex="1" parent="1">
          <mxGeometry x="730" y="560" width="60" height="30" as="geometry" />
        </mxCell>
        <mxCell id="4WxtduSmjNVkcB8dckDW-221" value="(1:1)" style="text;html=1;strokeColor=none;fillColor=none;align=center;verticalAlign=middle;whiteSpace=wrap;rounded=0;" vertex="1" parent="1">
          <mxGeometry x="890" y="560" width="60" height="30" as="geometry" />
        </mxCell>
        <mxCell id="4WxtduSmjNVkcB8dckDW-222" value="(1:N)" style="text;html=1;strokeColor=none;fillColor=none;align=center;verticalAlign=middle;whiteSpace=wrap;rounded=0;" vertex="1" parent="1">
          <mxGeometry x="990" y="560" width="60" height="30" as="geometry" />
        </mxCell>
        <mxCell id="4WxtduSmjNVkcB8dckDW-223" value="(1:1)" style="text;html=1;strokeColor=none;fillColor=none;align=center;verticalAlign=middle;whiteSpace=wrap;rounded=0;" vertex="1" parent="1">
          <mxGeometry x="1100" y="620" width="60" height="30" as="geometry" />
        </mxCell>
        <mxCell id="4WxtduSmjNVkcB8dckDW-224" value="(1:N)" style="text;html=1;strokeColor=none;fillColor=none;align=center;verticalAlign=middle;whiteSpace=wrap;rounded=0;" vertex="1" parent="1">
          <mxGeometry x="1100" y="690" width="60" height="30" as="geometry" />
        </mxCell>
        <mxCell id="4WxtduSmjNVkcB8dckDW-225" value="(1:N)" style="text;html=1;strokeColor=none;fillColor=none;align=center;verticalAlign=middle;whiteSpace=wrap;rounded=0;" vertex="1" parent="1">
          <mxGeometry x="830" y="530" width="60" height="30" as="geometry" />
        </mxCell>
        <mxCell id="4WxtduSmjNVkcB8dckDW-226" value="(1:1)" style="text;html=1;strokeColor=none;fillColor=none;align=center;verticalAlign=middle;whiteSpace=wrap;rounded=0;" vertex="1" parent="1">
          <mxGeometry x="827" y="405" width="60" height="30" as="geometry" />
        </mxCell>
        <mxCell id="4WxtduSmjNVkcB8dckDW-227" value="(1:N)" style="text;html=1;strokeColor=none;fillColor=none;align=center;verticalAlign=middle;whiteSpace=wrap;rounded=0;" vertex="1" parent="1">
          <mxGeometry x="990" y="340" width="60" height="30" as="geometry" />
        </mxCell>
        <mxCell id="4WxtduSmjNVkcB8dckDW-228" value="(0:N)" style="text;html=1;strokeColor=none;fillColor=none;align=center;verticalAlign=middle;whiteSpace=wrap;rounded=0;" vertex="1" parent="1">
          <mxGeometry x="890" y="340" width="60" height="30" as="geometry" />
        </mxCell>
        <mxCell id="4WxtduSmjNVkcB8dckDW-229" value="(0:1)" style="text;html=1;strokeColor=none;fillColor=none;align=center;verticalAlign=middle;whiteSpace=wrap;rounded=0;" vertex="1" parent="1">
          <mxGeometry x="310" y="740" width="60" height="30" as="geometry" />
        </mxCell>
        <mxCell id="4WxtduSmjNVkcB8dckDW-230" value="(0:N)" style="text;html=1;strokeColor=none;fillColor=none;align=center;verticalAlign=middle;whiteSpace=wrap;rounded=0;" vertex="1" parent="1">
          <mxGeometry x="310" y="630" width="60" height="30" as="geometry" />
        </mxCell>
        <mxCell id="4WxtduSmjNVkcB8dckDW-231" value="(1:N)" style="text;html=1;strokeColor=none;fillColor=none;align=center;verticalAlign=middle;whiteSpace=wrap;rounded=0;" vertex="1" parent="1">
          <mxGeometry x="310" y="900" width="60" height="30" as="geometry" />
        </mxCell>
        <mxCell id="4WxtduSmjNVkcB8dckDW-232" value="(1:N)" style="text;html=1;strokeColor=none;fillColor=none;align=center;verticalAlign=middle;whiteSpace=wrap;rounded=0;" vertex="1" parent="1">
          <mxGeometry x="310" y="830" width="60" height="30" as="geometry" />
        </mxCell>
        <mxCell id="4WxtduSmjNVkcB8dckDW-234" value="(0:N)" style="text;html=1;strokeColor=none;fillColor=none;align=center;verticalAlign=middle;whiteSpace=wrap;rounded=0;" vertex="1" parent="1">
          <mxGeometry x="110" y="560" width="60" height="30" as="geometry" />
        </mxCell>
        <mxCell id="4WxtduSmjNVkcB8dckDW-235" value="(1:N)" style="text;html=1;strokeColor=none;fillColor=none;align=center;verticalAlign=middle;whiteSpace=wrap;rounded=0;" vertex="1" parent="1">
          <mxGeometry x="210" y="560" width="60" height="30" as="geometry" />
        </mxCell>
      </root>
    </mxGraphModel>
  </diagram>
</mxfile>
